<svg width="50" height="38" viewBox="0 0 50 38" fill="none" xmlns="http://www.w3.org/2000/svg">
<path d="M47.7984 7.22439C46.8816 7.89536 44.9978 8.79487 42.1477 9.91967C38.064 12.4548 35.1638 16.3683 33.4465 21.6579C31.6629 26.9643 29.9962 30.5504 28.4459 32.414C26.3456 35.016 23.0451 36.67 18.5445 37.3763C17.6277 37.5267 15.6938 37.6445 12.744 37.7292H7.71817C7.23498 37.7112 6.81804 37.5267 6.4679 37.1749C6.13446 36.8389 5.96801 36.4274 5.96801 35.941C5.98471 35.4535 6.15978 35.0431 6.49322 34.7071C6.82666 34.371 7.23498 34.2022 7.71817 34.2022H12.6939C15.3943 34.1354 17.1612 34.0345 17.9945 33.8998C21.6284 33.3125 24.2119 32.0699 25.7455 30.172C27.0292 28.6102 28.4874 25.403 30.1212 20.5488C32.138 14.3695 35.5802 9.80187 40.4471 6.8471L40.7218 6.69564C42.5722 5.97364 43.9555 5.37759 44.8729 4.90693C43.4061 4.1339 40.5969 3.76476 36.4469 3.79896C31.9462 3.83207 27.2204 4.24301 22.27 5.03287C13.8354 6.37644 8.35973 9.55813 5.8425 14.5796C4.29326 17.6863 3.73465 21.9858 4.16775 27.4768C8.1685 17.821 14.4522 11.456 23.0198 8.38339C23.4696 8.21564 23.9119 8.23193 24.345 8.43333C24.7786 8.63473 25.0787 8.97076 25.2451 9.44033C25.4121 9.89416 25.3949 10.3393 25.195 10.7763C24.9952 11.2122 24.6617 11.514 24.1947 11.6829C19.4942 13.3793 15.5769 16.1739 12.4434 20.0706C9.32612 23.9498 6.92578 29.0044 5.24241 35.2347C5.14222 35.6218 4.94237 35.9323 4.64232 36.1668C4.32558 36.4024 3.96736 36.5284 3.56712 36.5452C3.18412 36.5452 2.83398 36.4274 2.51724 36.1923C2.2005 35.9578 1.98395 35.6462 1.86706 35.2602C1.55032 34.2022 1.34185 33.287 1.24166 32.5139C-0.0576333 24.1176 0.434179 17.6109 2.71763 12.9922C5.75146 6.8965 12.0938 3.07533 21.7453 1.5309C26.9457 0.7253 31.838 0.305128 36.4221 0.271471C39.9391 0.255728 42.6476 0.498385 44.5481 1.00324C47.2312 1.72524 48.7153 3.02647 48.9986 4.90693C49.1317 5.78039 48.7314 6.55233 47.7984 7.22439Z" fill="url(#paint0_linear)"/>
<defs>
<linearGradient id="paint0_linear" x1="0.53479" y1="19" x2="49.0235" y2="19" gradientUnits="userSpaceOnUse">
<stop stop-color="#E93E3A"/>
<stop offset="0.1" stop-color="#ED683C"/>
<stop offset="0.3" stop-color="#F3903F"/>
<stop offset="0.7" stop-color="#FDC70C"/>
<stop offset="1" stop-color="#FFF33B"/>
</linearGradient>
</defs>
</svg>
