<svg width="93" height="28" viewBox="0 0 93 28" fill="none" xmlns="http://www.w3.org/2000/svg">
<path fill-rule="evenodd" clip-rule="evenodd" d="M9.79301 7.77404C9.05011 6.22598 7.7331 5.14903 5.74075 5.14903C3.61326 5.14903 2.22876 6.42788 2.22876 8.11056C2.22876 9.59134 2.97167 10.7019 5.23418 11.5096L6.75382 12.0481C9.89433 13.125 11.8529 14.3029 11.8529 17.1635C11.8529 20.3606 8.74616 21.9423 6.04465 21.9423C3.10673 21.9423 0.607848 20.2933 0 17.399L1.31697 17.0625C1.92482 19.3846 3.88342 20.5962 6.04465 20.5962C8.10457 20.5962 10.3333 19.4856 10.3333 17.2308C10.3333 15.1443 8.91501 14.2019 6.6525 13.4279L4.72764 12.7548C1.85729 11.7452 0.709121 10.0625 0.709121 8.14422C0.709121 5.65386 2.83657 3.80286 5.74075 3.80286C8.3072 3.80286 10.1982 5.21636 11.0762 7.30288L9.79301 7.77404ZM23.6383 3.80286C27.5893 3.80286 32.5196 6.86538 32.5196 12.8894C32.5196 18.8798 27.5893 21.9423 23.6383 21.9423C20.5654 21.9423 17.8301 20.4279 16.4793 17.601V21.6058H16.4455L16.4455 28H14.8921L14.8921 16.6587H14.9259L14.9259 4.10575L16.4793 4.10575L16.4793 8.14422C17.8301 5.28365 20.5654 3.80286 23.6383 3.80286ZM23.537 20.5288C26.8126 20.5288 30.9662 18.0385 30.9662 12.8894C30.9662 7.70672 26.8126 5.21636 23.537 5.21636C20.1263 5.21636 16.4118 7.63943 16.4118 12.8894C16.4118 18.1058 20.1263 20.5288 23.537 20.5288ZM44.0686 3.83653C44.305 3.83653 44.5076 3.83653 44.6765 3.87019V5.31731C44.4738 5.28365 44.2713 5.28365 44.0686 5.28365C40.6917 5.28365 37.8889 7.70672 37.281 11.9808L37.281 21.6058L35.7277 21.6058L35.7277 4.10575H37.281V9.08655C37.6863 6.46154 40.3203 3.83653 44.0686 3.83653ZM55.7527 3.80286C59.7375 3.80286 64.6002 6.86538 64.6002 12.8558C64.6002 18.8798 59.7375 21.9423 55.7527 21.9423C51.768 21.9423 46.8715 18.8798 46.8715 12.8558C46.8715 6.86538 51.768 3.80286 55.7527 3.80286ZM55.7527 5.21636C52.5109 5.21636 48.4248 7.70672 48.4248 12.8558C48.4248 18.0385 52.5109 20.5288 55.7527 20.5288C58.9945 20.5288 63.0469 18.0385 63.0469 12.8558C63.0469 7.70672 58.9945 5.21636 55.7527 5.21636ZM74.0556 21.875C70.5774 21.875 67.3017 19.6875 67.3017 14.3365V4.10575H68.8551V14.4039C68.8551 18.5433 71.2527 20.4616 74.2582 20.4616C77.7701 20.4616 80.3028 17.2981 80.7756 14.7067V4.10575L82.329 4.10575V21.6058H80.7756V17.0625C80.4379 18.4423 78.1079 21.875 74.0556 21.875ZM93 5.48559L89.3192 5.48559V18.7788C89.3192 19.9231 89.8257 20.4279 90.7037 20.4279C91.5817 20.4279 92.1896 20.1587 92.9325 19.7548V21.1683C92.1896 21.5721 91.4804 21.8077 90.2985 21.8077C89.0153 21.8077 87.7658 21.0673 87.7658 19.0817V5.48559H85.3682V4.10575H87.7658V0L89.3192 0V4.10575L93 4.10575V5.48559Z" fill="#656565"/>
</svg>
